<?xml version="1.0" encoding="utf-8"?>
<!-- Generator: Adobe Illustrator 17.0.0, SVG Export Plug-In . SVG Version: 6.00 Build 0)  -->
<!DOCTYPE svg PUBLIC "-//W3C//DTD SVG 1.1//EN" "http://www.w3.org/Graphics/SVG/1.1/DTD/svg11.dtd">
<svg version="1.1" id="Layer_1" xmlns="http://www.w3.org/2000/svg" xmlns:xlink="http://www.w3.org/1999/xlink" x="0px" y="0px"
	 width="445.535px" height="88.161px" viewBox="0 0 445.535 88.161" enable-background="new 0 0 445.535 88.161"
	 xml:space="preserve">
<g>
	<g>
		<path fill="#777777" d="M147.59,20.293c-6.415,0-9.623,1.88-9.623,5.637c0,5.12,4.309,7.679,12.927,7.679h10.886v13.024h-10.69
			c-6.415,0-10.725,0.649-12.927,1.944c-2.398,1.297-3.597,3.435-3.597,6.415c0,5.185,4.277,7.776,12.83,7.776
			c2.916,0,6.009-0.518,9.282-1.555c3.271-1.036,6.041-2.299,8.31-3.791l3.985,13.51c-6.74,3.693-14.37,5.54-22.89,5.54
			c-8.521,0-15.162-1.83-19.925-5.492c-4.763-3.66-7.144-8.909-7.144-15.746c0-6.836,3.142-12.165,9.428-15.989
			c-4.277-3.757-6.415-8.456-6.415-14.094s2.219-10.189,6.658-13.656c4.437-3.466,10.383-5.2,17.836-5.2
			c2.979,0,6.301,0.406,9.962,1.215c3.66,0.811,6.722,1.832,9.185,3.062l-2.916,13.705C156.856,21.622,151.802,20.293,147.59,20.293
			z"/>
		<path fill="#777777" d="M191.522,7.852v49.57c0,2.009,0.518,3.581,1.555,4.714c1.036,1.134,2.267,1.701,3.694,1.701
			c2.722,0,5.021-1.23,6.901-3.693l5.443,10.206c-4.536,4.148-9.316,6.221-14.337,6.221c-5.022,0-9.267-1.652-12.733-4.957
			c-3.467-3.305-5.2-7.808-5.2-13.51V7.852H191.522z"/>
		<path fill="#777777" d="M235.844,64.615c2.785,0,5.492-0.695,8.116-2.09c2.625-1.393,4.714-3.256,6.269-5.589l8.359,9.039
			c-6.675,7.064-14.207,10.594-22.598,10.594c-8.392,0-15.082-2.559-20.071-7.679c-4.991-5.118-7.484-11.647-7.484-19.585
			c0-7.937,2.737-14.368,8.213-19.294c5.475-4.924,11.776-7.387,18.905-7.387c7.127,0,13.088,2.009,17.884,6.026
			c4.795,4.018,7.387,9.202,7.776,15.551v1.847l-34.797,14.385C228.618,63.222,231.762,64.615,235.844,64.615z M236.33,35.261
			c-3.565,0-6.724,1.166-9.477,3.499c-2.755,2.333-4.131,5.574-4.131,9.72c0,0.778,0.032,1.361,0.097,1.75l22.744-9.234
			C244.721,37.173,241.642,35.261,236.33,35.261z"/>
		<path fill="#777777" d="M281.817,75.792l-20.703-52.389h15.163l13.024,32.95l13.025-32.95h15.163l-20.703,52.389H281.817z"/>
		<path fill="#777777" d="M347.426,64.615c2.785,0,5.492-0.695,8.116-2.09c2.625-1.393,4.714-3.256,6.269-5.589l8.359,9.039
			c-6.675,7.064-14.207,10.594-22.598,10.594c-8.392,0-15.082-2.559-20.071-7.679c-4.991-5.118-7.484-11.647-7.484-19.585
			c0-7.937,2.737-14.368,8.213-19.294c5.475-4.924,11.776-7.387,18.905-7.387c7.127,0,13.088,2.009,17.884,6.026
			c4.795,4.018,7.387,9.202,7.776,15.551v1.847l-34.797,14.385C340.199,63.222,343.343,64.615,347.426,64.615z M347.912,35.261
			c-3.565,0-6.724,1.166-9.477,3.499c-2.755,2.333-4.131,5.574-4.131,9.72c0,0.778,0.032,1.361,0.097,1.75l22.744-9.234
			C356.302,37.173,353.224,35.261,347.912,35.261z"/>
		<path fill="#777777" d="M413.367,46.244v3.707h15v-5.942c0-6.479-1.949-11.664-5.674-15.552
			c-3.727-3.888-8.146-5.832-13.653-5.832c-5.508,0-10.673,2.235-14.673,6.707v-6.381h-15v53h15V46.633
			c0-4.082,0.843-7.176,3.015-9.282c2.17-2.105,4.469-3.159,7.385-3.159C410.663,34.192,413.367,38.21,413.367,46.244z"/>
		<path fill="#777777" d="M440.148,60.144c-1.88,2.463-4.179,3.693-6.901,3.693c-1.426,0-2.474-0.567-3.509-1.701
			c-1.037-1.133-1.371-2.705-1.371-4.714v-8.471h-15v9.151c0,5.703,1.958,10.206,5.424,13.51c3.466,3.305,7.329,4.957,12.351,4.957
			c5.021,0,9.857-2.073,14.393-6.221L440.148,60.144z"/>
	</g>
	<path fill="#AF8035" d="M40.414,46.072c-1.562-1.562-1.562-4.095,0-5.657s4.095-1.562,5.657,0l23.077,23.077
		c9.656-12.44,8.781-30.41-2.645-41.835c-12.384-12.384-32.463-12.384-44.848,0c-12.384,12.384-12.384,32.463,0,44.848
		c11.426,11.425,29.397,12.3,41.836,2.644L40.414,46.072z"/>
	<path fill="#AF8035" d="M72.454,72.455c-15.645,15.645-41.103,15.645-56.748,0s-15.645-41.103,0-56.748s41.103-15.645,56.748,0
		S88.099,56.809,72.454,72.455 M75.25,75.25c17.215-17.215,17.215-45.125,0.001-62.339s-45.125-17.215-62.34,0
		s-17.215,45.124,0,62.339S58.035,92.465,75.25,75.25L75.25,75.25z"/>
</g>
</svg>
